<svg preserveAspectRatio="none" width="100%" height="100%" overflow="visible" style="display: block;" viewBox="0 0 247.574 244" fill="none" xmlns="http://www.w3.org/2000/svg">
<path id="Vector" d="M247.52 122C247.52 54.7457 192.016 0 123.787 0C55.5579 0 0 54.7457 0 122C0 189.254 55.5038 244 123.787 244C192.07 244 247.574 189.254 247.574 122H247.52ZM241.293 122C241.293 169.598 211.943 210.589 170.139 228.296C168.948 228.784 168.028 227.213 169.002 226.401C194.399 205.012 211.348 166.241 211.348 122C211.348 77.7594 194.344 38.988 169.002 17.5988C168.028 16.7865 169.002 15.2162 170.139 15.7035C211.943 33.4647 241.293 74.4021 241.293 122ZM126.928 8.28495C126.928 7.4727 127.74 6.9312 128.498 7.2561C145.88 14.1873 162.937 58.5362 162.937 122C162.937 185.464 145.934 229.867 128.498 236.744C127.74 237.069 126.928 236.527 126.928 235.715V8.28495ZM120.646 235.715C120.646 236.527 119.834 237.069 119.076 236.744C101.694 229.813 84.6365 185.464 84.6365 122C84.6365 58.5362 101.64 14.1332 119.076 7.2561C119.834 6.9312 120.646 7.4727 120.646 8.28495V235.715ZM78.3551 122C78.3551 165.862 87.4523 210.806 103.481 231.762C104.185 232.683 103.264 233.928 102.181 233.495C67.7958 220.012 42.5078 175.121 42.5078 121.946C42.5078 68.7705 67.7958 23.9343 102.181 10.451C103.264 10.0178 104.185 11.2632 103.481 12.1838C87.4523 33.1398 78.3551 78.0843 78.3551 121.946V122ZM169.165 122C169.165 78.1385 160.067 33.194 144.039 12.2379C143.335 11.3174 144.256 10.0719 145.339 10.5051C179.724 23.9885 205.012 68.8788 205.012 122.054C205.012 175.229 179.724 220.066 145.339 233.603C144.256 234.036 143.335 232.791 144.039 231.87C160.067 210.914 169.165 165.97 169.165 122.108V122ZM6.2814 122C6.2814 74.4021 35.6307 33.4106 77.4345 15.6494C78.6258 15.162 79.5464 16.7324 78.5717 17.5446C53.1753 38.9339 36.2264 77.7053 36.2264 121.946C36.2264 166.186 53.2295 205.012 78.5717 226.347C79.5464 227.159 78.5717 228.73 77.4345 228.242C35.6307 210.589 6.2814 169.598 6.2814 122Z" fill="var(--fill-0, #FE3C00)"/>
</svg>
